<?xml version="1.0" encoding="UTF-8"?>
<svg id="_图层_1" data-name="图层 1" xmlns="http://www.w3.org/2000/svg" viewBox="0 0 2048 2048">
  <defs>
    <style>
      .cls-1 {
        fill: #030303;
      }

      .cls-1, .cls-2 {
        stroke-width: 0px;
      }
    </style>
  </defs>
  <path class="cls-2" d="M1021.57,987.56q1.56,0,3.15-.02c2.19,0,4.39-.02,6.58-.02,3.27,0,6.54-.04,9.81-.07,19.21-.1,38.15,1.65,56.89,6,1.12.26,2.23.51,3.38.78,26.6,6.32,51.09,17.03,74.31,31.42,1.71,1.05,3.44,2.07,5.17,3.09,13.08,7.76,24.89,16.93,35.87,27.43,2.5,2.34,5.08,4.47,7.77,6.59,1.69,1.64,3.35,3.31,5,5q.91.9,1.85,1.82c4.62,4.55,8.94,9.26,13.15,14.18.96,1.1,1.93,2.2,2.89,3.3,4.89,5.59,9.64,11.09,13.59,17.4,2.69,4.09,5.76,7.92,8.75,11.8q1.76,2.5,1.76,4.5h2c1.85,2.44,3.59,4.9,5.31,7.44,8.05,11.63,16.33,23.22,25.92,33.64,1.85,2.01,3.62,4.08,5.39,6.17,2.13,2.46,4.28,4.59,6.81,6.62.85.7,1.69,1.4,2.56,2.12v2h2v2c.59.26,1.18.52,1.79.79,2.38,1.31,3.76,2.66,5.59,4.65,6.43,6.62,13.95,12.45,21.62,17.56v2q.99.32,2.01.64c4.07,1.85,7.34,4.45,10.87,7.18,1.37,1.05,2.74,2.1,4.12,3.14q1,.76,2.01,1.55c1.97,1.48,3.98,2.87,6,4.26.99.74,1.97,1.48,2.99,2.24v2q.81.33,1.64.67c3.12,1.76,5.54,4.12,8.11,6.58,3.35,3.14,6.65,6.18,10.38,8.88,12.83,9.32,23.57,21.35,32.87,34.12,1.76,2.41,3.58,4.74,5.45,7.07,26.48,34.07,40.54,76.62,41.56,119.69.02.65.04,1.31.06,1.98,1.15,39.55-9.43,74.61-30.06,108.02-.54.97-1.08,1.93-1.64,2.93-.45.68-.9,1.37-1.36,2.07h-2c-.18.67-.37,1.33-.56,2.02-2.07,4.29-5.21,7.28-8.5,10.67-1.28,1.34-2.57,2.67-3.85,4.01q-.85.88-1.72,1.78-1.46,1.5-2.37,3.52h-2c-.33.99-.66,1.98-1,3q-1.78,1.82-3.94,3.69c-.71.62-1.42,1.25-2.15,1.89q-1.91,1.43-3.91,1.43v2c-23.35,19.84-55.47,31.8-85,38-1.03.22-2.05.43-3.11.66-8.89,1.67-17.87,2.04-26.89,2.34q-1.09.04-2.2.09c-30.91,1.1-62.44-4.45-91.99-13.13-8.07-2.36-16.22-4.39-24.38-6.45-10.06-2.55-20.06-5.2-30-8.19-12.35-3.7-24.84-6.58-37.44-9.31-.9-.2-1.79-.39-2.72-.6-13.32-2.91-26.73-4.93-40.28-6.4-.86-.1-1.72-.2-2.61-.3-10.19-1.01-20.42-.9-30.64-.89-.98,0-1.97,0-2.98,0-52.19.11-102.22,12.59-151.96,27.48-5.75,1.71-11.53,3.21-17.37,4.61-3.25.79-6.49,1.63-9.73,2.5-21.78,5.76-44.12,10.3-66.71,10.59-1.44.04-2.88.08-4.31.12-42.93.86-89.27-10.54-123.69-37.12-.88-.67-1.75-1.35-2.66-2.04-9.73-7.72-18.34-16.48-26.34-25.96-.77-.87-1.54-1.74-2.33-2.63-29.71-34.23-41.48-82.83-38.46-127.41,3.55-44.45,17.94-85.91,46.49-120.36,1.68-2.05,3.27-4.16,4.86-6.28,9.47-12.23,20.68-23.48,32.73-33.11,2.57-2.09,5.01-4.27,7.45-6.52,9.67-8.79,20.12-16.66,30.6-24.45,4.57-3.4,9.04-6.9,13.46-10.49,2.76-2.2,5.61-4.28,8.49-6.32q1.82-1.41,3.29-3.59c.46-.6.93-1.21,1.4-1.83h2v-2q1.29-1.27,3.19-2.81c4.11-3.49,7.94-7.19,11.75-11,.58-.58,1.16-1.15,1.76-1.74q3.02-2.94,5.31-6.44h2c.24-.55.48-1.11.73-1.68,1.55-2.83,3.46-5.01,5.58-7.45,4.34-5.08,8.31-10.37,12.19-15.81,6.62-9.27,13.47-18.32,20.62-27.19,2.66-3.3,5.17-6.66,7.62-10.12,3.79-5.28,7.94-10.18,12.21-15.07,2.18-2.49,4.2-4.92,6.04-7.68h2c.25-.58.51-1.17.77-1.77,1.36-2.47,2.83-3.97,4.9-5.87.73-.68,1.46-1.35,2.21-2.05.76-.7,1.52-1.4,2.31-2.12,1.49-1.38,2.99-2.76,4.48-4.14.73-.68,1.46-1.35,2.22-2.05,1.98-1.86,3.89-3.77,5.79-5.71,20.56-20.74,49.95-35.7,76.32-47.29.64-.29,1.27-.58,1.93-.87,20.83-9.29,45.52-13.72,68.07-16.13q1.1-.13,2.23-.26c6.29-.69,12.51-.92,18.84-.95Z"/>
  <path class="cls-1" d="M929.5,408.76c1.06.45,2.12.89,3.21,1.35,25.96,11.02,51.35,23.92,73.05,42.2q1.89,1.63,4.74,3.45v2c.53.23,1.06.46,1.6.7,3.16,1.71,5.94,3.85,8.77,6.05q.87.67,1.75,1.35c3.92,3.06,7.5,6.24,10.88,9.9,4.2-1.72,7.27-4.67,10.62-7.62,4.93-4.29,9.91-8.49,15.05-12.53,1.53-1.21,3.04-2.44,4.53-3.69,32.25-26.77,72.68-44.23,112.8-55.16.74-.21,1.48-.42,2.24-.63,9.83-2.73,19.78-4.2,29.88-5.56,1.24-.17,2.48-.33,3.75-.51,77.33-9.93,157.52,10.01,219.51,57.78,6.18,4.83,12.16,9.88,18.08,15.03,2.44,2.13,4.83,4.08,7.53,5.88v2c.58.25,1.16.49,1.75.75,2.58,1.43,4.31,3.03,6.25,5.25v2c.99.33,1.98.66,3,1q1.61,1.56,3.19,3.44c.53.62,1.06,1.23,1.61,1.87q1.21,1.69,1.21,3.69h2q1.78,1.91,3.94,4.62c.81,1.01,1.61,2.02,2.45,3.07.43.54.86,1.09,1.3,1.65,1.3,1.64,2.62,3.26,3.94,4.88,12.78,15.79,23.01,32.8,32.38,50.79.4.76.79,1.52,1.2,2.31,2.35,4.53,4.61,9.09,6.8,13.69q.74,1.56,1.5,3.14c15.16,33.5,22.85,70.35,25.5,106.86.57-.01,1.15-.03,1.74-.04,19.65-.26,39.27,3.27,58.26,8.04.99.24,1.97.48,2.99.73,22.9,5.7,49.35,13.5,68.33,28.1,1.99,1.38,4.05,2.37,6.24,3.41,6.85,3.32,13.12,7.53,19.44,11.75,1.03.68,2.06,1.36,3.12,2.07q5.16,3.5,6.88,4.93v2q1.02.29,2.05.59c4.09,1.95,6.91,4.84,10.14,7.97,1.24,1.19,2.49,2.38,3.73,3.57.54.53,1.09,1.05,1.65,1.6q1.43,1.38,3.43,2.28v2c.59.27,1.18.53,1.79.8,2.27,1.23,3.78,2.5,5.6,4.32.62.62,1.25,1.24,1.89,1.88.65.66,1.3,1.32,1.97,2q1.01,1.02,2.04,2.06c4.95,5.05,9.44,10.3,13.71,15.94,1.27,1.57,2.54,3.14,3.8,4.71,15.85,19.76,28.49,41,38.45,64.25,1.11,2.6,2.26,5.17,3.46,7.73,33.77,72.84,32.54,167.34,5.24,242.04-6.28,16.7-13.41,32.81-21.99,48.46-1.43,2.67-2.73,5.4-4.03,8.13-4.57,9.2-10.51,17.32-17,25.25-5.01,6.28-9.39,13.03-13.68,19.82-.42.53-.83,1.07-1.26,1.62h-2c-.29.6-.58,1.2-.88,1.81q-1.12,2.19-3.12,5.19h-2c-.26.59-.52,1.18-.79,1.79-1.27,2.33-2.6,3.77-4.52,5.59-2.34,2.25-4.48,4.52-6.5,7.06-.72.85-1.44,1.69-2.19,2.56h-2v2h-2v2h-2c-.33.99-.66,1.98-1,3h-2v2h-2v2h-2c-.27.6-.53,1.2-.8,1.82-2.15,3.93-5.77,6.36-9.2,9.18-.58.48-1.15.96-1.75,1.46-7.56,6.32-15.12,12.33-23.42,17.66-2.91,1.92-5.64,3.99-8.39,6.12-13.87,10.49-28.94,18.93-44.44,26.75-1.35.69-2.71,1.38-4.06,2.07q-15.64,7.93-19.94,7.93c.16.56.31,1.12.47,1.7,6.65,24.17,11.2,48.34,13.53,73.3.07.75.14,1.5.22,2.27,4.93,53.93-2.59,110.45-25.31,159.76-.93,2.02-1.83,4.04-2.74,6.07-9.42,20.86-21.55,40.29-36.17,57.9-.69.91-1.38,1.83-2.1,2.77-.63.74-1.26,1.47-1.9,2.23h-2c-.21.69-.42,1.38-.64,2.1-1.78,3.79-4.28,6.35-7.18,9.34-1.05,1.1-2.1,2.2-3.14,3.31q-.77.81-1.55,1.64c-1.43,1.55-2.78,3.15-4.11,4.79-2.07,2.47-4.14,4.6-6.56,6.71q-1.01.89-2.04,1.8-1.77,1.32-3.77,1.32v2q-1.62,1.45-3.88,3.12c-3.3,2.49-6.55,5.01-9.75,7.62-11.28,9-22.79,16.99-35.35,24.1-1.91,1.09-3.8,2.19-5.68,3.31-14.03,8.27-28.61,14.24-43.83,19.89-2.5.95-4.97,1.96-7.45,2.98-16.94,6.81-35.13,10.77-53.06,13.98-1.03.19-2.07.37-3.13.57-30.94,5.41-62.56,6.29-93.87,4.43-1.35-.07-2.7-.14-4.05-.21-9.52-.51-18.98-1.27-28.45-2.35-.73-.08-1.45-.17-2.2-.25-37.98-4.41-75.51-11.8-112.97-19.32-6.95-1.39-13.9-2.76-20.86-4.09-.82-.16-1.64-.31-2.48-.48-35.17-6.67-70.31-9.5-105.99-5.3-.92.11-1.85.21-2.8.32-6.75.8-13.48,1.7-20.2,2.68-.91.13-1.83.26-2.77.4-12.01,1.76-23.84,4.13-35.67,6.84-29.32,6.7-58.93,11.77-88.69,16.14-.82.12-1.65.24-2.49.37-17.15,2.51-34.33,4.37-51.63,5.38-.71.04-1.41.08-2.14.13-61.33,3.56-123.62-5.05-179.61-31.25-1.27-.57-2.53-1.14-3.8-1.71-10.43-4.73-20.28-10.21-30.12-16.06-3.01-1.78-6.05-3.51-9.08-5.23v-2q-1.02-.32-2.05-.64c-3.9-1.79-6.86-4.31-10.14-7.04-5.22-4.28-10.49-8.31-16.15-12.01-.55-.43-1.1-.86-1.66-1.3v-2h-2v-2c-.58-.27-1.16-.53-1.76-.8-6.18-3.3-10.98-8.82-15.46-14.11-1.84-2.17-3.74-4.29-5.65-6.4-3.72-4.18-7.27-8.48-10.79-12.83-1.54-1.88-3.11-3.73-4.71-5.55-7.64-8.76-13.61-18.38-19.63-28.3-.5-.8-.99-1.61-1.51-2.43-3.64-5.94-6.82-12.02-9.81-18.32-.47-1-.94-1.99-1.43-3.02-8.43-17.99-15.22-36-20.26-55.23-.24-.89-.47-1.78-.72-2.7-4.32-16.52-6.45-33.35-8.28-50.3-.11-.98-.21-1.95-.32-2.96-4.32-44.97,2.13-90.53,13.32-134.04q-1.52-.64-3.08-1.29c-7.58-3.21-14.76-6.62-21.81-10.91-3.54-2.06-7.17-3.83-10.86-5.62-12.03-5.89-23.14-13.05-33.7-21.28q-2.53-1.97-5.38-3.54c-.72-.45-1.43-.9-2.17-1.37v-2c-.88-.25-1.77-.49-2.68-.75-3.52-1.32-5.66-2.83-8.51-5.25-.95-.8-1.9-1.6-2.88-2.43-3.76-3.29-7.47-6.63-11.14-10.02-2.1-1.92-4.23-3.78-6.39-5.62-5.14-4.48-9.96-9.29-14.78-14.11-1.56-1.56-3.13-3.11-4.71-4.67-9.09-9.03-17.08-18.7-24.49-29.16-1.13-1.58-2.25-3.15-3.38-4.73-.53-.74-1.06-1.49-1.61-2.25-1.78-2.47-3.62-4.9-5.45-7.33-10.62-14.69-19.25-30.31-26.7-46.81-1.27-2.8-2.56-5.6-3.85-8.39-11.85-25.96-19.31-52.53-24.45-80.49-.18-.98-.36-1.96-.55-2.98-14.17-78.91.62-167.52,46.55-234.02.48-.69.96-1.39,1.45-2.1,7.55-10.89,15.67-21.06,24.55-30.9.92-1.04,1.85-2.07,2.77-3.11,5.06-5.61,10.28-11.04,15.61-16.39.58-.59,1.17-1.18,1.77-1.78q8.75-8.72,11.86-8.72v-2h2v-2c1.82-1.59,3.63-3.05,5.56-4.5.59-.44,1.17-.89,1.77-1.34,12.6-9.42,25.94-17.48,39.66-25.16.72-.41,1.44-.81,2.18-1.23,11.22-6.3,22.75-11.31,34.82-15.77.74-.27,1.48-.55,2.24-.83,27.5-10.08,58.39-16.74,87.76-16.17.03-.56.07-1.11.1-1.68,2.89-43.98,14.28-90.27,37.57-128.13,1.55-2.57,2.86-5.21,4.13-7.94,5-10.17,11.45-19.48,18.2-28.56,1.42-1.92,2.82-3.86,4.2-5.81.72-1.01,1.43-2.02,2.17-3.06q.97-1.38,1.96-2.79.82-1,1.66-2.02h2c.25-.56.49-1.11.75-1.69,1.48-2.74,3.18-4.99,5.25-7.31h2c.22-.54.45-1.08.68-1.64,1.75-3.12,4.08-5.58,6.51-8.18.5-.53,1-1.07,1.51-1.62,1.43-1.53,2.87-3.05,4.3-4.57.63-.67,1.25-1.34,1.89-2.02,4.17-4.32,8.77-8.06,13.45-11.82,2.29-1.86,4.51-3.76,6.72-5.72q2.94-2.44,4.94-2.44v-2c2.42-2.02,5-3.76,7.58-5.57,2.2-1.55,4.36-3.14,6.52-4.75,8.67-6.46,17.68-11.54,27.33-16.37,1.4-.71,2.8-1.43,4.2-2.14,35.13-17.89,71.04-29.09,110.37-33.17.69-.07,1.38-.14,2.09-.22,46.92-4.57,95.46,1.93,138.91,20.22ZM771.5,441.76c-.91.16-1.83.31-2.77.47-44.71,7.79-91.41,31.88-123.23,64.53v2h-2v2h-2v2h-2q-1.47,1.41-3,3.31c-2.8,3.31-5.7,6.48-8.69,9.62-11.36,12.51-20.09,27.16-28.81,41.57-1.03,1.7-2.06,3.39-3.1,5.08-4.59,7.52-8.1,15.25-11.41,23.41-.28.7-.57,1.4-.86,2.13-11.79,29.51-18.85,60.52-20.42,92.28-.51,9.26-2.01,17.17-7.78,24.66-.69.92-1.38,1.84-2.1,2.79q-1.84,2.15-3.84,3.15v2c-.68.27-1.36.54-2.06.81-2.08.84-4.12,1.76-6.14,2.73-3.8,1.62-7.43,1.94-11.52,2.02-1.51.05-3.02.11-4.52.16-.78.02-1.57.05-2.38.07-46.93,1.56-93.63,13.88-132.37,41.21-1.43,1-2.87,2-4.3,2.99-1.52,1.06-3.05,2.13-4.57,3.2-.71.5-1.43,1-2.16,1.51-4.15,2.93-8.2,5.88-11.96,9.3v2c-.58.25-1.16.5-1.75.75-2.57,1.42-4.23,3.06-6.25,5.18-2.02,2.11-3.89,3.98-6.25,5.69-.58.45-1.16.9-1.75,1.37v2h-2c-1.46,1.61-2.84,3.29-4.19,5-2.63,3.3-5.26,6.53-8.12,9.62-22.28,25.32-38.94,58.87-47.62,91.19-.17.64-.34,1.28-.52,1.93-5.51,20.67-9.68,42.28-9.71,63.72,0,.87,0,1.74-.01,2.64,0,1.83,0,3.67,0,5.5,0,2.73-.02,5.47-.04,8.2-.05,15.86,1.11,31.57,3.91,47.2q.25,1.39.5,2.81c3.18,17.21,6.94,35.03,13.81,51.19.39.93.79,1.86,1.19,2.82,11.44,26.88,24.58,51.61,41.81,75.18.55.79,1.1,1.58,1.66,2.4.44.53.88,1.06,1.34,1.6h2c.22.53.45,1.06.68,1.61,1.76,3.19,4.07,5.83,6.45,8.57.49.57.98,1.14,1.48,1.73.99,1.15,1.98,2.3,2.98,3.45,1.29,1.49,2.57,2.99,3.85,4.49q1.05,1.22,2.13,2.46c.62.72,1.24,1.44,1.88,2.18q1.44,1.74,3.56,1.51c.27.6.53,1.2.8,1.82,1.25,2.28,2.35,3.46,4.32,5.12.71.6,1.42,1.2,2.14,1.82,4.91,4.04,9.83,8.05,14.78,12.04,3.21,2.59,6.36,5.24,9.52,7.89,16.47,13.45,35.61,23.61,54.44,33.31,1.12.58,2.23,1.16,3.38,1.75,4.42,2.25,8.79,4.37,13.43,6.12,12.12,4.72,25.86,10.82,31.5,23.23,4.13,11.33,1.11,22.82-1.93,34-1.08,3.99-2.1,8-3.12,12-.2.78-.4,1.57-.61,2.37-9.69,37.84-11.99,79.79-6.65,118.52q.23,1.69.46,3.41c3.37,24.4,9.11,48.43,20.42,70.47.71,1.39,1.42,2.79,2.12,4.18.34.67.69,1.35,1.04,2.04.84,1.67,1.65,3.35,2.46,5.04,10.43,21.75,25.01,41.49,41.94,58.55.81.82,1.61,1.63,2.44,2.47.76.76,1.52,1.51,2.3,2.29.69.68,1.37,1.37,2.08,2.07q1.61,1.69,3.74,1.48c.66,1.32,1.32,2.64,2,4h2v2c3.47,3.23,7.26,6.09,11,9,.82.64,1.63,1.29,2.48,1.95,8.3,6.28,17.29,11.45,26.26,16.71,1.85,1.1,3.69,2.22,5.52,3.35,9.14,5.59,18.92,9.77,28.75,13.99q1.61.71,3.26,1.44c33.32,13.82,71.92,18.64,107.74,19.56,1.14.03,2.29.06,3.46.09,3.52.04,7.02-.01,10.54-.09.79-.01,1.58-.03,2.4-.04,31.99-.58,63.65-4.84,95.09-10.51,3.63-.65,7.26-1.29,10.89-1.93,3.9-.69,7.8-1.38,11.69-2.08,1.87-.33,3.73-.66,5.6-.99,10.68-1.9,21.24-4.08,31.78-6.66,7.91-1.92,15.84-3.48,23.86-4.86q1.06-.19,2.14-.37c41.49-7.24,82.68-10.27,124.55-4.56.76.1,1.51.2,2.29.31,18.21,2.46,36.32,5.11,54.23,9.3,40.43,9.43,82.12,16.64,123.48,20.39.93.09,1.86.19,2.82.28,11.7,1.02,23.43.94,35.16.96,3.72,0,7.44.04,11.16.07,42.27.19,86.77-7.34,124.86-26.31.8-.4,1.59-.79,2.41-1.2,9.7-4.86,19.2-9.98,28.4-15.74q1.04-.64,2.09-1.3c13.36-8.55,25.33-18.33,36.46-29.61,1.88-1.91,3.79-3.79,5.7-5.67,11.23-11.2,20.82-23.47,29.12-36.98.49-.8.99-1.59,1.5-2.42,1.45-2.35,2.88-4.72,4.31-7.08.4-.66.81-1.32,1.22-2,11.09-18.26,19.66-38.26,24.78-59,.26-1.03.51-2.07.78-3.13,13.01-53.79,9.94-107.66-2.72-161.2-.16-.68-.32-1.37-.49-2.07-.78-3.27-1.57-6.54-2.38-9.8-2.79-11.42-3.15-20.43,2.57-31.04,8.41-10.28,20.87-15.35,32.81-20.5,10.87-4.7,21.14-10.42,31.44-16.25.79-.45,1.59-.89,2.41-1.35,15.45-8.73,29.18-18.94,42.85-30.22,2.22-1.81,4.48-3.55,6.75-5.3,14.04-11.22,26.86-24.29,37.91-38.45,1.54-1.97,3.09-3.91,4.67-5.84,6.91-8.51,12.87-17.38,18.41-26.83.41-.69.81-1.38,1.23-2.09,7.34-12.6,13.71-25.65,19.77-38.91.35-.76.69-1.51,1.05-2.29,26.04-57.59,28.02-128.27,11.95-188.71-.22-.85-.45-1.69-.68-2.57-5.08-18.8-12.72-36.05-22.05-53.1-1.25-2.3-2.46-4.61-3.67-6.93-7.93-15.02-18.02-28.01-29.6-40.4-1.52-1.71-3.04-3.41-4.56-5.12-7.69-8.5-15.75-15.68-24.83-22.64-2.04-1.57-4.04-3.19-6.04-4.8-36.52-28.27-84.6-46.31-130.87-47.8-1.57-.06-3.14-.13-4.71-.2-2.43-.1-4.86-.2-7.29-.27-12.17-.38-21.74-1.83-31.09-10.37-6.12-6.91-8.53-13.52-9.14-22.55-2.55-34.96-9.37-68.52-22.02-101.32-.43-1.14-.87-2.27-1.32-3.44-2.58-6.47-5.6-12.23-9.49-18.01-1.69-2.57-3.18-5.21-4.63-7.92-5.39-10.02-11.08-19.51-18-28.56-.63-.82-1.25-1.64-1.9-2.49-12.45-15.94-27.04-31.2-43.1-43.51q-1.39-1.1-2.82-2.23c-7.69-5.96-15.77-10.94-24.18-15.77-.65-.38-1.3-.75-1.97-1.14-4.64-2.68-9.32-5.29-14.03-7.86-.62-.34-1.24-.69-1.88-1.04-23.71-13.09-50.98-19.6-77.71-22.67-1.48-.17-2.96-.36-4.44-.57-8.13-1.1-16.35-.95-24.54-.96-.82,0-1.64,0-2.49,0-13.85.01-27.28.89-40.95,3.25-.93.16-1.85.31-2.81.47-10.92,1.85-21.66,4.06-32.19,7.53-.8.26-1.6.53-2.42.8-12.77,4.25-24.65,9.38-36.38,15.97-2.1,1.18-4.22,2.33-6.33,3.48-14.8,8.08-28.66,17.26-41.86,27.75-1.67,1.27-3.33,2.54-5,3.81-3.25,2.53-6.16,5.2-9,8.19-1.39,1.42-2.79,2.84-4.19,4.25-.67.69-1.35,1.37-2.04,2.08q-1.77,1.67-3.77,2.67v2q-.9.43-1.81.88-2.38,1.17-5.19,3.12v2c-.58.29-1.15.57-1.75.87-1.42.71-2.84,1.43-4.25,2.16-.66.34-1.32.68-2,1.03-.66.34-1.32.68-2,1.04-7.18,3.24-16.53,3.1-23.94.65-10.74-4.95-19.51-14.93-27.62-23.3-3.31-3.4-6.67-6.55-10.44-9.45h-2v-2c-6.43-5.55-13.94-9.91-21.16-14.35-3.8-2.34-7.48-4.77-11.09-7.4-4.27-3.05-8.7-5.39-13.43-7.65-2.38-1.15-4.73-2.32-7.08-3.54-8.53-4.42-17.11-8.17-26.19-11.34-2.07-.73-4.13-1.49-6.18-2.25-12.67-4.58-25.62-7.16-38.87-9.47-.9-.17-1.79-.33-2.72-.5-27.13-4.95-57.2-4.42-84.28.5Z"/>
  <path class="cls-2" d="M885.01,530.09q2.57,1.78,5.75,3.47c4.45,2.51,8.41,5.61,12.43,8.77.79.62,1.57,1.23,2.39,1.87,6.62,5.22,12.86,10.72,18.93,16.57.68.64,1.36,1.28,2.06,1.94,1.36,1.31,2.66,2.67,3.94,4.06v2q.85.34,1.72.68c19.33,11.16,33.1,44.21,42.39,63.5.61,1.24,1.23,2.48,1.86,3.7,28.36,54.99,31.04,127.69,12.94,186.11-12.76,39.35-39.25,74.82-74.92,96-.61.37-1.22.74-1.84,1.12-31.11,18.67-68.89,24.89-104.17,16.31-17.31-4.5-33.51-10.44-48.99-19.43-.59-.34-1.18-.67-1.78-1.02-6.47-3.72-12.58-7.85-18.53-12.36-.57-.43-1.14-.86-1.73-1.3-1.36-1.06-2.67-2.19-3.96-3.32v-2q-.9-.4-1.81-.81c-2.19-1.19-3.6-2.28-5.19-4.19v-2q-.87-.37-1.75-.75c-2.58-1.43-4.31-3.03-6.25-5.25v-2c-.6-.27-1.19-.54-1.8-.82-13.25-7.09-22.32-25.67-29.9-38.05-1.07-1.74-2.15-3.47-3.23-5.2-9.51-15.58-16.83-32.47-22.39-49.82-.58-1.8-1.19-3.6-1.81-5.39-3.66-10.96-5.79-22.37-7.86-33.71-.17-.92-.34-1.83-.51-2.77-2.47-13.99-2.77-27.94-2.8-42.1,0-.86,0-1.73-.01-2.62-.08-38.13,7.62-76.37,27.12-109.44,1.14-1.95,2.23-3.91,3.31-5.89,9.64-17.6,22.74-32.16,37.9-45.18.81-.7,1.62-1.39,2.45-2.11,16.44-13.66,35.79-22.25,56.55-26.89.73-.16,1.45-.33,2.2-.5,34.88-7.48,77.39-1.73,107.3,18.82Z"/>
  <path class="cls-2" d="M1312.5,517.76c.64.24,1.29.48,1.95.73,14.37,5.5,27.62,13.47,38.76,24.13,3.3,3.08,6.87,5.78,10.46,8.51.61.54,1.21,1.08,1.84,1.63v2h2v2h2c1.78,2,3.43,4.01,5.06,6.12.49.63.98,1.27,1.49,1.92,9.08,11.88,16.45,24.76,23.45,37.95.56,1.04,1.11,2.08,1.68,3.16,27.14,54.72,24.72,124.98,6.32,181.84q-.39,1.21-.79,2.44c-3.91,11.83-9.12,22.61-15.11,33.52-1.42,2.64-2.7,5.33-3.98,8.04-6.37,12.84-14.56,26.26-24.12,37h-2v2h-2c-.26.59-.51,1.17-.78,1.77-1.33,2.42-2.79,3.96-4.79,5.85q-2.58,2.42-4.44,5.38h-2c-.66,1.32-1.32,2.64-2,4h-2v2h-2q-.37.86-.74,1.75c-6.99,12.52-25.95,21.99-38.26,28.25-.94.53-1.87,1.05-2.84,1.6-16.09,8.72-35.03,14.93-53.16,17.4q-1.39.19-2.81.39c-36.38,4.07-75.9-7.36-104.69-29.95-2.2-1.78-4.35-3.6-6.5-5.44-.91-.77-1.83-1.55-2.77-2.34-10.08-8.8-18.25-18.99-26.23-29.66-.51-.66-1.01-1.32-1.53-2-3.74-5-6.59-10.48-9.47-16-.31-.59-.63-1.18-.95-1.79-12.24-23.05-19.11-48.32-22.05-74.21-.09-.8-.19-1.59-.29-2.41-.92-8.64-.91-17.29-.9-25.96,0-.8,0-1.6,0-2.42.12-45.43,11.14-89.41,33.18-129.2.69-1.27,1.38-2.54,2.06-3.81,4.36-7.96,9.37-15.29,14.75-22.57,1.09-1.49,2.15-3,3.21-4.52,5.09-7.25,10.85-13.73,16.97-20.1.54-.57,1.08-1.13,1.63-1.72,8.23-8.61,16.87-16.12,26.37-23.28,1.48-1.21,2.96-2.42,4.44-3.62,14.72-11.37,31.84-19.08,49.56-24.38q1.49-.45,3.01-.9c28.84-7.91,61.14-5.55,88.99,4.9Z"/>
  <path class="cls-2" d="M601.06,849.68c2.28,1.94,4.62,3.77,7.01,5.58,9.67,7.46,18.18,16.09,26.5,25,.61.65,1.22,1.3,1.85,1.97q9.08,9.72,9.08,12.53h2c2.63,3.11,4.77,6.61,7,10q.55.83,1.11,1.67c7.88,11.95,14.43,24.56,20.89,37.33.45.88.9,1.77,1.36,2.68,9.28,18.36,15.28,38.03,18.64,58.32.2,1.18.41,2.35.62,3.56,2.75,18.19,2.46,37.31-.62,55.44q-.18,1.11-.36,2.23c-2.15,13.01-6.27,24.76-11.64,36.77-.31.71-.63,1.43-.95,2.16-6.08,13.58-14.78,28.89-26.05,38.84h-2v2h-2q-.34.84-.69,1.7c-4.67,8.18-14.65,14.2-22.31,19.3-.66.49-1.31.98-1.99,1.48-27.85,20.21-66.55,24.72-99.74,19.88-31.61-5.08-59.65-18.5-84.71-38.16-1.31-1.01-2.65-1.98-4.01-2.93-.51-.42-1.02-.84-1.55-1.28v-2c-.55-.23-1.1-.46-1.66-.7-34.38-19.06-61.15-72.13-71.8-108.07-1.32-4.71-2.47-9.45-3.54-14.23-.19-.82-.37-1.64-.56-2.48-6.54-29.47-7.88-59.72-2.44-89.52.14-.76.28-1.53.42-2.32,7.31-38.28,29.57-72.84,61.55-95.06,55.15-37.14,131.54-23.51,180.58,18.29Z"/>
  <path class="cls-2" d="M1662,842.32q2.09,1.88,3.5,3.44v2c.56.23,1.13.46,1.71.7,20.47,11.58,33.42,46.36,39.63,67.78,7.09,27.02,7.68,55.96,3.66,83.52-.1.74-.2,1.48-.31,2.25-1.61,11.55-4.3,22.6-7.69,33.75-.19.66-.39,1.31-.59,1.99-2.83,9.57-6.75,18.18-11.36,26.97-1.06,2.06-2.09,4.13-3.1,6.22-3.87,7.95-8.01,15.47-12.95,22.82-.63.96-1.25,1.93-1.9,2.92-3.52,5.38-7.16,10.66-10.98,15.83-.74,1.01-1.48,2.01-2.24,3.05-.62.73-1.24,1.45-1.88,2.2h-2q-.36.84-.72,1.7c-1.57,2.82-3.5,4.77-5.78,7.06-.89.89-1.77,1.78-2.69,2.7-.93.92-1.86,1.84-2.81,2.79-.93.94-1.86,1.87-2.81,2.84-.89.88-1.77,1.77-2.69,2.68-.81.81-1.63,1.62-2.47,2.46q-2.03,1.77-4.03,1.77v2q-1.34,1.28-3.23,2.72c-.69.53-1.39,1.07-2.1,1.62-.76.57-1.51,1.14-2.29,1.72-.78.59-1.56,1.17-2.36,1.78-6.8,5.08-13.68,9.89-21.02,14.16-.75.44-1.49.87-2.26,1.32-17.64,10.12-36.63,17.32-56.74,20.68q-1.54.3-3.11.61c-36.9,6.49-75.29-3.37-105.98-24.25-5.25-3.75-10.32-7.83-14.91-12.36v-2h-2q-1.45-1.43-3.12-3.44c-1.87-2.21-3.72-4.4-5.73-6.5-29.22-30.79-37.14-73.51-36.29-114.43,1.13-29.13,8.8-60,22.98-85.53,1.35-2.45,2.64-4.92,3.94-7.4,9.97-18.88,21.64-37.99,37.27-52.78,1.85-1.83,3.54-3.71,5.22-5.69,9.96-11.46,21.3-20.86,34.01-29.1,2.34-1.54,4.59-3.18,6.85-4.82,54.72-38.27,129.33-42.63,181.38,2.25Z"/>
</svg>